<svg xmlns="http://www.w3.org/2000/svg" viewBox="0 0 64 64" role="img" aria-label="vue-paged-media pixel icon" shape-rendering="crispEdges">
  <title>vue-paged-media pixel icon</title>

  <rect x="8" y="8" width="48" height="48" fill="#273849"/>
  <rect x="12" y="12" width="40" height="40" fill="#ffffff"/>
  <rect x="16" y="16" width="32" height="8" fill="#42b883"/>
  <rect x="16" y="28" width="8" height="4" fill="#dce7e2"/>
  <rect x="28" y="28" width="8" height="4" fill="#dce7e2"/>
  <rect x="40" y="28" width="8" height="4" fill="#dce7e2"/>
  <rect x="16" y="36" width="8" height="4" fill="#dce7e2"/>
  <rect x="28" y="36" width="8" height="4" fill="#dce7e2"/>
  <rect x="40" y="36" width="8" height="4" fill="#dce7e2"/>
  <rect x="16" y="44" width="32" height="4" fill="#42b883"/>

  <rect x="24" y="20" width="4" height="4" fill="#273849"/>
  <rect x="28" y="24" width="4" height="4" fill="#273849"/>
  <rect x="32" y="28" width="4" height="4" fill="#273849"/>
  <rect x="36" y="24" width="4" height="4" fill="#273849"/>
  <rect x="40" y="20" width="4" height="4" fill="#273849"/>

  <rect x="28" y="20" width="4" height="4" fill="#7bdcb5"/>
  <rect x="32" y="24" width="4" height="4" fill="#7bdcb5"/>
  <rect x="36" y="20" width="4" height="4" fill="#7bdcb5"/>

  <rect x="4" y="16" width="4" height="32" fill="#42b883"/>
  <rect x="56" y="16" width="4" height="32" fill="#42b883"/>
  <rect x="16" y="4" width="32" height="4" fill="#42b883"/>
  <rect x="16" y="56" width="32" height="4" fill="#42b883"/>
</svg>
